<svg width="193" height="345" viewBox="0 0 193 345" fill="none" xmlns="http://www.w3.org/2000/svg">
<path fill-rule="evenodd" clip-rule="evenodd" d="M57.2653 228.106C58.3656 233.462 60.7066 240.556 58.77 246.3C58.4541 246.434 57.982 246.127 57.8034 246.515C56.3271 249.4 59.1303 245.955 53.5255 247.561C53.3686 247.612 52.9973 247.65 52.8019 247.822C62.4476 289.03 15.2421 280.373 19.1941 311.66C20.5922 322.903 27.1269 327.87 28.8163 335.537C26.407 334.768 26.3045 335.407 23.3165 330.729C14.877 317.62 12.3476 300.067 25.43 289.232C39.3899 277.654 47.4978 276.793 50.0321 265.096C50.9906 260.702 51.2716 252.025 50.0926 247.893C47.7919 239.695 30.2536 239.521 52.4525 226.476C41.3472 217.067 38.549 216.61 30.5165 200.517C25.2886 190.041 21.0635 178.309 18.0437 165.518C6.34213 116.128 16.917 52.0074 61.7688 21.2455C80.2248 8.57442 111.516 -1.52046 138.41 12.8053C161.053 24.8914 174.643 41.5575 182.054 67.3207C200.096 129.962 159.692 197.204 99.0256 222.494C83.1725 229.095 75.7623 228.189 57.3225 228.171L57.2653 228.106Z" fill="#FFC305" fill-opacity="0.5"/>
<path fill-rule="evenodd" clip-rule="evenodd" d="M163.736 106.056C153.278 106.182 151.341 103.323 152.472 93.3796C152.387 87.0448 149.793 79.5961 150.681 75.8126C152.58 67.7924 168.588 63.0755 169.54 88.9152C169.858 97.3544 168.922 102.364 163.736 106.056Z" fill="#FFEEBA"/>
<path fill-rule="evenodd" clip-rule="evenodd" d="M160.765 56.6428C160.625 71.259 147.536 67.3761 146.838 60.5409C146.399 56.3648 149.265 53.3843 152.038 52.7943C157.056 51.7035 157.966 54.2814 160.763 56.6734L160.765 56.6428Z" fill="#FFEEBA"/>
</svg>
